<svg id="Capa_1" enable-background="new 0 0 512 512" height="512" viewBox="0 0 512 512" width="512" xmlns="http://www.w3.org/2000/svg"><g><g id="Move_1_"><g><path d="m256 512c-3.838 0-7.676-1.465-10.605-4.395l-90-90c-4.277-4.292-5.566-10.737-3.252-16.348s7.793-9.257 13.857-9.257h45v-91h-91v45c0 6.064-3.662 11.543-9.258 13.857-5.566 2.358-12.041 1.055-16.348-3.252l-90-90c-5.859-5.859-5.859-15.352 0-21.211l90-90c4.307-4.277 10.781-5.596 16.348-3.252 5.596 2.315 9.258 7.794 9.258 13.858v45h91v-91h-45c-6.064 0-11.543-3.647-13.857-9.258s-1.025-12.056 3.252-16.348l90-90c5.859-5.859 15.352-5.859 21.211 0l90 90c4.277 4.292 5.566 10.737 3.252 16.348s-7.794 9.258-13.858 9.258h-45v91h91v-45c0-6.064 3.662-11.543 9.258-13.857 5.596-2.329 12.07-1.025 16.348 3.252l90 90c5.859 5.859 5.859 15.352 0 21.211l-90 90c-4.307 4.307-10.781 5.596-16.348 3.252-5.596-2.315-9.258-7.794-9.258-13.858v-45h-91v91h45c6.064 0 11.543 3.647 13.857 9.258s1.025 12.056-3.252 16.348l-90 90c-2.929 2.929-6.767 4.394-10.605 4.394z" fill="#5c5c99"/></g><g><path d="m75 512h-60c-8.291 0-15-6.709-15-15v-60c0-8.291 6.709-15 15-15s15 6.709 15 15v45h45c8.291 0 15 6.709 15 15s-6.709 15-15 15z" fill="#cfe6e6"/></g><g><path d="m497 512h-60c-8.291 0-15-6.709-15-15s6.709-15 15-15h45v-45c0-8.291 6.709-15 15-15s15 6.709 15 15v60c0 8.291-6.709 15-15 15z" fill="#a3c6cc"/></g><g><path d="m15 90c-8.291 0-15-6.709-15-15v-60c0-8.291 6.709-15 15-15h60c8.291 0 15 6.709 15 15s-6.709 15-15 15h-45v45c0 8.291-6.709 15-15 15z" fill="#cfe6e6"/></g><g><path d="m497 90c-8.291 0-15-6.709-15-15v-45h-45c-8.291 0-15-6.709-15-15s6.709-15 15-15h60c8.291 0 15 6.709 15 15v60c0 8.291-6.709 15-15 15z" fill="#a3c6cc"/></g></g><path d="m266.605 507.605 90-90c4.277-4.292 5.566-10.737 3.252-16.348s-7.793-9.257-13.857-9.257h-45v-91h91v45c0 6.064 3.662 11.543 9.258 13.857 5.566 2.344 12.041 1.055 16.348-3.252l90-90c5.859-5.859 5.859-15.352 0-21.211l-90-90c-4.277-4.277-10.752-5.581-16.348-3.252-5.596 2.315-9.258 7.794-9.258 13.858v45h-91v-91h45c6.064 0 11.543-3.647 13.857-9.258s1.025-12.056-3.252-16.348l-90-90c-2.929-2.929-6.767-4.394-10.605-4.394v512c3.838 0 7.676-1.465 10.605-4.395z" fill="#404080"/></g></svg>